<svg xmlns="http://www.w3.org/2000/svg" viewBox="0 0 841.89 841.89"><defs><style>.cls-1{fill:#1d1d1b;}</style></defs><g id="Layer_101" data-name="Layer 101"><path class="cls-1" d="M515.93,786.83c-34.68,0-74.86-.2-121.38-.44h-.23c-24.53-.13-50.79-.26-78.94-.38l-7.7,0c-157-.65-215.67-.89-240.82-44.35C46.75,706.87,50.34,639.75,83.05,613.87c15.6-12.34,34.7-13.69,34.89-13.7,1.23-.08,2.49-.12,3.73-.12,18.64,0,32.82,8.84,39.61,14.11l1.11.86,3-3.77-1.1-.88A140.4,140.4,0,0,1,125,560.85c-5.24-11.11-29.88-68.84-1.25-114.54,16.69-26.65,50.37-45.58,87.88-49.41a133.9,133.9,0,0,1,13.64-.71c26.31,0,49.21,8.17,62.83,22.4,13.87,14.5,25,42.83,16.54,70.78C298,511.39,282,524.44,273,530.26l-1.11.72,2.25,4.06,1.2-.56a66.89,66.89,0,0,1,27.57-6.34,51.07,51.07,0,0,1,18.95,3.55c23.65,9.42,38.5,36,35.31,63.24-3.08,26.3-22.53,48.1-47.3,53a57.55,57.55,0,0,1-11.2,1.1c-20.87,0-40.9-11.42-51-29.09-9.09-15.84-7.79-32.15-6.21-40.47l.24-1.26-4.37-1.29-.48,1.2c-8.17,20.35-19.31,59.73-2.09,94.84,27.69,56.48,107.54,60.46,150.43,62.6,5.72.29,15.28.76,27.27.76a353.88,353.88,0,0,0,54.73-3.92c44.48-7,73.12-23,85.11-47.56,12.07-24.69,3.12-49.88-5.54-74.25s-16.82-47.28-2.55-67c11-15.23,34.18-25.46,57.61-25.46a67.12,67.12,0,0,1,22,3.49c4.85,1.69,19.63,6.83,23.73,19.5s-3.35,28.7-19,40.91c-1.81,1.33-3.62,2.61-5.37,3.83l-1.15.8,2.67,4,1.17-.75c2-1.26,3.84-2.61,5.63-4a343.77,343.77,0,0,0,61.4-57.4C725.71,488.88,746.06,445,753.32,398l.38-2.48c5.52-35.62,11.22-72.46-10.34-96.35-10.92-12.1-26.33-18-47.12-18-24.64,0-53.48,8-84,16.54-33.13,9.23-67.39,18.78-98.15,18.78-24,0-43.26-5.77-59.06-17.65-23.74-17.86-40.21-50.29-45.16-89-5.38-42,4.13-83.08,25.44-109.92,19.88-25,52.42-42,84.92-44.33,3.32-.23,7.85-.55,13-.55,23.39,0,42.56,6.78,57,20.16,25,23.18,25.55,55.81,25.12,65.26l-.07,1.36,4.7.41.18-1.34c.3-2.31,7.82-56.55,39.68-65.56a33.77,33.77,0,0,1,9.29-1.27c20,0,38.76,16.23,47.79,24,42.95,37.12,67.92,105.59,70.31,192.8,2.08,75.91-13.59,154.59-40.9,205.33-29.6,55-61.13,83.81-62.45,85A369.56,369.56,0,0,1,639.06,620a41.13,41.13,0,0,0-4.81,3.48l-1,.87,2.88,3.74,1.12-.79q2.28-1.62,4.55-3.28a35.66,35.66,0,0,1,18.55-5.25,34.43,34.43,0,0,1,12.85,2.47C690,628,694,644.85,694.44,646.75l.29,1.33,4.65-.79-.17-1.35C696,620.66,703,600,717,593.15a25.76,25.76,0,0,1,11.32-2.4,37.56,37.56,0,0,1,16.85,4.11c10.17,5.6,18.62,18.92,23.81,37.49,10.09,36.14,5.77,81.08-10.51,109.31-12.78,22.15-28.66,34.46-80,40.23C641.7,786,589,786.83,515.93,786.83Z"/></g></svg>